<mxfile host="app.diagrams.net" agent="Mozilla/5.0 (Windows NT 10.0; Win64; x64; rv:137.0) Gecko/20100101 Firefox/137.0" version="26.2.9">
  <diagram name="Página-1" id="4k3PS0f7IVq_EoHHaAwR">
    <mxGraphModel dx="1428" dy="779" grid="1" gridSize="10" guides="1" tooltips="1" connect="1" arrows="1" fold="1" page="1" pageScale="1" pageWidth="850" pageHeight="1100" math="0" shadow="0">
      <root>
        <mxCell id="0" />
        <mxCell id="1" parent="0" />
        <mxCell id="JmrJD3lhgNQrW1m8cqB9-22" style="edgeStyle=orthogonalEdgeStyle;rounded=0;orthogonalLoop=1;jettySize=auto;html=1;entryX=0;entryY=0.25;entryDx=0;entryDy=0;" parent="1" source="JmrJD3lhgNQrW1m8cqB9-2" target="JmrJD3lhgNQrW1m8cqB9-8" edge="1">
          <mxGeometry relative="1" as="geometry" />
        </mxCell>
        <mxCell id="JmrJD3lhgNQrW1m8cqB9-5" value="" style="swimlane;startSize=0;fillColor=light-dark(#CCE5FF,#E6FFCC);strokeColor=#36393d;fillStyle=solid;" parent="1" vertex="1">
          <mxGeometry x="115" y="50" width="310" height="750" as="geometry">
            <mxRectangle x="40" y="70" width="50" height="40" as="alternateBounds" />
          </mxGeometry>
        </mxCell>
        <mxCell id="JmrJD3lhgNQrW1m8cqB9-1" value="Creación y administración de usuarios" style="rounded=0;whiteSpace=wrap;html=1;" parent="JmrJD3lhgNQrW1m8cqB9-5" vertex="1">
          <mxGeometry x="30" y="60" width="120" height="60" as="geometry" />
        </mxCell>
        <mxCell id="JmrJD3lhgNQrW1m8cqB9-21" value="" style="edgeStyle=orthogonalEdgeStyle;rounded=0;orthogonalLoop=1;jettySize=auto;html=1;" parent="JmrJD3lhgNQrW1m8cqB9-5" source="JmrJD3lhgNQrW1m8cqB9-12" target="JmrJD3lhgNQrW1m8cqB9-14" edge="1">
          <mxGeometry relative="1" as="geometry" />
        </mxCell>
        <mxCell id="JmrJD3lhgNQrW1m8cqB9-12" value="Validar la información" style="rounded=0;whiteSpace=wrap;html=1;" parent="JmrJD3lhgNQrW1m8cqB9-5" vertex="1">
          <mxGeometry x="40" y="300" width="120" height="60" as="geometry" />
        </mxCell>
        <mxCell id="JmrJD3lhgNQrW1m8cqB9-34" style="edgeStyle=orthogonalEdgeStyle;rounded=0;orthogonalLoop=1;jettySize=auto;html=1;exitX=0.5;exitY=1;exitDx=0;exitDy=0;exitPerimeter=0;entryX=0.5;entryY=0;entryDx=0;entryDy=0;" parent="JmrJD3lhgNQrW1m8cqB9-5" source="JmrJD3lhgNQrW1m8cqB9-14" target="JmrJD3lhgNQrW1m8cqB9-15" edge="1">
          <mxGeometry relative="1" as="geometry" />
        </mxCell>
        <mxCell id="JmrJD3lhgNQrW1m8cqB9-14" value="¿Existen errores?" style="strokeWidth=2;html=1;shape=mxgraph.flowchart.decision;whiteSpace=wrap;" parent="JmrJD3lhgNQrW1m8cqB9-5" vertex="1">
          <mxGeometry x="37" y="400" width="126" height="100" as="geometry" />
        </mxCell>
        <mxCell id="JmrJD3lhgNQrW1m8cqB9-38" style="edgeStyle=orthogonalEdgeStyle;rounded=0;orthogonalLoop=1;jettySize=auto;html=1;exitX=0.5;exitY=1;exitDx=0;exitDy=0;entryX=0.5;entryY=0;entryDx=0;entryDy=0;" parent="JmrJD3lhgNQrW1m8cqB9-5" source="JmrJD3lhgNQrW1m8cqB9-15" target="JmrJD3lhgNQrW1m8cqB9-16" edge="1">
          <mxGeometry relative="1" as="geometry" />
        </mxCell>
        <mxCell id="JmrJD3lhgNQrW1m8cqB9-15" value="Analizar información" style="rounded=0;whiteSpace=wrap;html=1;" parent="JmrJD3lhgNQrW1m8cqB9-5" vertex="1">
          <mxGeometry x="40" y="550" width="120" height="60" as="geometry" />
        </mxCell>
        <mxCell id="JmrJD3lhgNQrW1m8cqB9-16" value="Reportes" style="rounded=0;whiteSpace=wrap;html=1;" parent="JmrJD3lhgNQrW1m8cqB9-5" vertex="1">
          <mxGeometry x="40" y="660" width="120" height="60" as="geometry" />
        </mxCell>
        <mxCell id="JmrJD3lhgNQrW1m8cqB9-35" value="&lt;div&gt;No&lt;/div&gt;&lt;div&gt;&lt;br&gt;&lt;/div&gt;" style="text;html=1;align=center;verticalAlign=middle;resizable=0;points=[];autosize=1;strokeColor=none;fillColor=none;" parent="JmrJD3lhgNQrW1m8cqB9-5" vertex="1">
          <mxGeometry x="90" y="500" width="40" height="40" as="geometry" />
        </mxCell>
        <mxCell id="JmrJD3lhgNQrW1m8cqB9-2" value="Aviso de solicitud" style="rounded=0;whiteSpace=wrap;html=1;" parent="JmrJD3lhgNQrW1m8cqB9-5" vertex="1">
          <mxGeometry x="30" y="170" width="120" height="60" as="geometry" />
        </mxCell>
        <mxCell id="JmrJD3lhgNQrW1m8cqB9-17" value="" style="edgeStyle=orthogonalEdgeStyle;rounded=0;orthogonalLoop=1;jettySize=auto;html=1;" parent="JmrJD3lhgNQrW1m8cqB9-5" source="JmrJD3lhgNQrW1m8cqB9-1" target="JmrJD3lhgNQrW1m8cqB9-2" edge="1">
          <mxGeometry relative="1" as="geometry" />
        </mxCell>
        <mxCell id="JmrJD3lhgNQrW1m8cqB9-51" value="&lt;b&gt;&lt;font style=&quot;font-size: 22px;&quot;&gt;INE&lt;/font&gt;&lt;/b&gt;" style="text;html=1;align=center;verticalAlign=middle;resizable=0;points=[];autosize=1;strokeColor=none;fillColor=none;" parent="JmrJD3lhgNQrW1m8cqB9-5" vertex="1">
          <mxGeometry x="120" width="60" height="40" as="geometry" />
        </mxCell>
        <mxCell id="JmrJD3lhgNQrW1m8cqB9-37" value="SI" style="text;html=1;align=center;verticalAlign=middle;resizable=0;points=[];autosize=1;strokeColor=none;fillColor=none;" parent="JmrJD3lhgNQrW1m8cqB9-5" vertex="1">
          <mxGeometry x="10" y="410" width="30" height="30" as="geometry" />
        </mxCell>
        <mxCell id="JmrJD3lhgNQrW1m8cqB9-32" style="edgeStyle=orthogonalEdgeStyle;rounded=0;orthogonalLoop=1;jettySize=auto;html=1;exitX=0;exitY=0.5;exitDx=0;exitDy=0;exitPerimeter=0;entryX=1;entryY=0.25;entryDx=0;entryDy=0;" parent="1" source="JmrJD3lhgNQrW1m8cqB9-13" target="JmrJD3lhgNQrW1m8cqB9-12" edge="1">
          <mxGeometry relative="1" as="geometry" />
        </mxCell>
        <mxCell id="JmrJD3lhgNQrW1m8cqB9-50" value="" style="swimlane;startSize=0;fillColor=#cce5ff;strokeColor=#36393d;gradientColor=light-dark(#000000,#E6FFCC);" parent="1" vertex="1">
          <mxGeometry x="440" y="50" width="330" height="750" as="geometry">
            <mxRectangle x="430" y="60" width="50" height="40" as="alternateBounds" />
          </mxGeometry>
        </mxCell>
        <mxCell id="JmrJD3lhgNQrW1m8cqB9-52" value="&lt;b&gt;&lt;font style=&quot;font-size: 20px;&quot;&gt;Fuentes de Información&lt;/font&gt;&lt;/b&gt;" style="text;html=1;align=center;verticalAlign=middle;resizable=0;points=[];autosize=1;strokeColor=none;fillColor=none;" parent="JmrJD3lhgNQrW1m8cqB9-50" vertex="1">
          <mxGeometry x="50" width="250" height="40" as="geometry" />
        </mxCell>
        <mxCell id="JmrJD3lhgNQrW1m8cqB9-8" value="&lt;div&gt;Información solicitada&lt;/div&gt;&lt;div&gt;&lt;br&gt;&lt;/div&gt;" style="rounded=0;whiteSpace=wrap;html=1;" parent="JmrJD3lhgNQrW1m8cqB9-50" vertex="1">
          <mxGeometry x="102" y="60" width="126" height="60" as="geometry" />
        </mxCell>
        <mxCell id="JmrJD3lhgNQrW1m8cqB9-9" value="Procesar la información" style="rounded=0;whiteSpace=wrap;html=1;" parent="JmrJD3lhgNQrW1m8cqB9-50" vertex="1">
          <mxGeometry x="105" y="170" width="120" height="60" as="geometry" />
        </mxCell>
        <mxCell id="JmrJD3lhgNQrW1m8cqB9-10" value="Cargar información" style="rounded=0;whiteSpace=wrap;html=1;" parent="JmrJD3lhgNQrW1m8cqB9-50" vertex="1">
          <mxGeometry x="105" y="270" width="120" height="60" as="geometry" />
        </mxCell>
        <mxCell id="JmrJD3lhgNQrW1m8cqB9-11" value="Validar información" style="rounded=0;whiteSpace=wrap;html=1;" parent="JmrJD3lhgNQrW1m8cqB9-50" vertex="1">
          <mxGeometry x="105" y="365" width="120" height="60" as="geometry" />
        </mxCell>
        <mxCell id="JmrJD3lhgNQrW1m8cqB9-70" style="edgeStyle=orthogonalEdgeStyle;rounded=0;orthogonalLoop=1;jettySize=auto;html=1;exitX=1;exitY=0.5;exitDx=0;exitDy=0;exitPerimeter=0;entryX=1;entryY=0.25;entryDx=0;entryDy=0;" parent="JmrJD3lhgNQrW1m8cqB9-50" source="JmrJD3lhgNQrW1m8cqB9-13" target="JmrJD3lhgNQrW1m8cqB9-9" edge="1">
          <mxGeometry relative="1" as="geometry">
            <Array as="points">
              <mxPoint x="290" y="550" />
              <mxPoint x="290" y="185" />
            </Array>
          </mxGeometry>
        </mxCell>
        <mxCell id="JmrJD3lhgNQrW1m8cqB9-13" value="¿Existen errores?" style="strokeWidth=2;html=1;shape=mxgraph.flowchart.decision;whiteSpace=wrap;" parent="JmrJD3lhgNQrW1m8cqB9-50" vertex="1">
          <mxGeometry x="102" y="500" width="126" height="100" as="geometry" />
        </mxCell>
        <mxCell id="JmrJD3lhgNQrW1m8cqB9-23" value="" style="edgeStyle=orthogonalEdgeStyle;rounded=0;orthogonalLoop=1;jettySize=auto;html=1;" parent="JmrJD3lhgNQrW1m8cqB9-50" source="JmrJD3lhgNQrW1m8cqB9-8" target="JmrJD3lhgNQrW1m8cqB9-9" edge="1">
          <mxGeometry relative="1" as="geometry" />
        </mxCell>
        <mxCell id="JmrJD3lhgNQrW1m8cqB9-24" value="" style="edgeStyle=orthogonalEdgeStyle;rounded=0;orthogonalLoop=1;jettySize=auto;html=1;" parent="JmrJD3lhgNQrW1m8cqB9-50" source="JmrJD3lhgNQrW1m8cqB9-9" target="JmrJD3lhgNQrW1m8cqB9-10" edge="1">
          <mxGeometry relative="1" as="geometry" />
        </mxCell>
        <mxCell id="JmrJD3lhgNQrW1m8cqB9-25" value="" style="edgeStyle=orthogonalEdgeStyle;rounded=0;orthogonalLoop=1;jettySize=auto;html=1;" parent="JmrJD3lhgNQrW1m8cqB9-50" source="JmrJD3lhgNQrW1m8cqB9-10" target="JmrJD3lhgNQrW1m8cqB9-11" edge="1">
          <mxGeometry relative="1" as="geometry" />
        </mxCell>
        <mxCell id="JmrJD3lhgNQrW1m8cqB9-26" value="" style="edgeStyle=orthogonalEdgeStyle;rounded=0;orthogonalLoop=1;jettySize=auto;html=1;" parent="JmrJD3lhgNQrW1m8cqB9-50" source="JmrJD3lhgNQrW1m8cqB9-11" target="JmrJD3lhgNQrW1m8cqB9-13" edge="1">
          <mxGeometry relative="1" as="geometry" />
        </mxCell>
        <mxCell id="JmrJD3lhgNQrW1m8cqB9-31" value="SI" style="text;html=1;align=center;verticalAlign=middle;resizable=0;points=[];autosize=1;strokeColor=none;fillColor=none;" parent="JmrJD3lhgNQrW1m8cqB9-50" vertex="1">
          <mxGeometry x="220" y="510" width="30" height="30" as="geometry" />
        </mxCell>
        <mxCell id="JmrJD3lhgNQrW1m8cqB9-33" value="No" style="text;html=1;align=center;verticalAlign=middle;resizable=0;points=[];autosize=1;strokeColor=none;fillColor=none;" parent="JmrJD3lhgNQrW1m8cqB9-50" vertex="1">
          <mxGeometry x="72" y="525" width="40" height="30" as="geometry" />
        </mxCell>
        <mxCell id="JmrJD3lhgNQrW1m8cqB9-53" value="&lt;font style=&quot;font-size: 20px;&quot;&gt;&lt;b&gt;Diagrama de flujo, para el funcionamiento de la plataforma&lt;/b&gt;&lt;/font&gt;" style="text;html=1;align=center;verticalAlign=middle;resizable=0;points=[];autosize=1;strokeColor=none;fillColor=none;" parent="1" vertex="1">
          <mxGeometry x="135" width="580" height="40" as="geometry" />
        </mxCell>
        <mxCell id="XwaF0TQRcEIVWzNF7NfH-4" style="edgeStyle=orthogonalEdgeStyle;rounded=0;orthogonalLoop=1;jettySize=auto;html=1;exitX=0;exitY=0.5;exitDx=0;exitDy=0;exitPerimeter=0;entryX=0;entryY=0.5;entryDx=0;entryDy=0;" edge="1" parent="1" source="JmrJD3lhgNQrW1m8cqB9-14" target="JmrJD3lhgNQrW1m8cqB9-8">
          <mxGeometry relative="1" as="geometry">
            <Array as="points">
              <mxPoint x="132" y="500" />
              <mxPoint x="132" y="310" />
              <mxPoint x="480" y="310" />
              <mxPoint x="480" y="140" />
            </Array>
          </mxGeometry>
        </mxCell>
      </root>
    </mxGraphModel>
  </diagram>
</mxfile>
